<mxfile host="Electron" modified="2024-07-09T14:21:22.550Z" agent="Mozilla/5.0 (Windows NT 10.0; Win64; x64) AppleWebKit/537.36 (KHTML, like Gecko) draw.io/21.2.8 Chrome/112.0.5615.165 Electron/24.2.0 Safari/537.36" etag="9kNKcXUADs2qJSlDKlNW" version="21.2.8" type="device">
  <diagram name="Page-1" id="cOieZPHPTwZgrWVBR8_8">
    <mxGraphModel dx="3131" dy="1616" grid="1" gridSize="10" guides="1" tooltips="1" connect="1" arrows="1" fold="1" page="0" pageScale="1" pageWidth="850" pageHeight="1100" math="0" shadow="0">
      <root>
        <mxCell id="0" />
        <mxCell id="1" parent="0" />
        <mxCell id="Nu5w_VwsL_ZHYVIoER0i-13" value="&lt;span style=&quot;font-size: 18px;&quot;&gt;Customer&lt;/span&gt;" style="swimlane;whiteSpace=wrap;html=1;fillColor=#cdeb8b;strokeColor=#36393d;" parent="1" vertex="1">
          <mxGeometry x="-220" y="-60" width="490" height="1510" as="geometry" />
        </mxCell>
        <mxCell id="Nu5w_VwsL_ZHYVIoER0i-14" value="&lt;font size=&quot;3&quot;&gt;custmor has problem in his car&lt;/font&gt;" style="rounded=1;whiteSpace=wrap;html=1;strokeColor=#9673a6;fontFamily=Helvetica;fontSize=12;fontColor=default;startSize=23;fillColor=#FFFFFF;" parent="Nu5w_VwsL_ZHYVIoER0i-13" vertex="1">
          <mxGeometry x="80" y="50" width="160" height="60" as="geometry" />
        </mxCell>
        <mxCell id="Nu5w_VwsL_ZHYVIoER0i-83" value="" style="edgeStyle=orthogonalEdgeStyle;rounded=0;orthogonalLoop=1;jettySize=auto;html=1;" parent="Nu5w_VwsL_ZHYVIoER0i-13" source="Nu5w_VwsL_ZHYVIoER0i-15" target="Nu5w_VwsL_ZHYVIoER0i-82" edge="1">
          <mxGeometry relative="1" as="geometry" />
        </mxCell>
        <mxCell id="Nu5w_VwsL_ZHYVIoER0i-15" value="&lt;font size=&quot;3&quot;&gt;Making an order for the Service he needs&lt;/font&gt;" style="rounded=1;whiteSpace=wrap;html=1;strokeColor=#9673a6;fontFamily=Helvetica;fontSize=12;fontColor=default;startSize=23;fillColor=#FFFFFF;" parent="Nu5w_VwsL_ZHYVIoER0i-13" vertex="1">
          <mxGeometry x="80" y="140" width="160" height="60" as="geometry" />
        </mxCell>
        <mxCell id="Nu5w_VwsL_ZHYVIoER0i-16" style="edgeStyle=orthogonalEdgeStyle;rounded=0;orthogonalLoop=1;jettySize=auto;html=1;exitX=0.5;exitY=1;exitDx=0;exitDy=0;fontFamily=Helvetica;fontSize=12;fontColor=default;startSize=23;" parent="Nu5w_VwsL_ZHYVIoER0i-13" source="Nu5w_VwsL_ZHYVIoER0i-14" target="Nu5w_VwsL_ZHYVIoER0i-15" edge="1">
          <mxGeometry relative="1" as="geometry">
            <mxPoint x="160.20000000000005" y="210" as="targetPoint" />
          </mxGeometry>
        </mxCell>
        <mxCell id="Nu5w_VwsL_ZHYVIoER0i-17" style="edgeStyle=orthogonalEdgeStyle;rounded=0;orthogonalLoop=1;jettySize=auto;html=1;exitX=0.5;exitY=1;exitDx=0;exitDy=0;fontFamily=Helvetica;fontSize=12;fontColor=default;startSize=23;" parent="Nu5w_VwsL_ZHYVIoER0i-13" source="Nu5w_VwsL_ZHYVIoER0i-18" target="Nu5w_VwsL_ZHYVIoER0i-19" edge="1">
          <mxGeometry relative="1" as="geometry" />
        </mxCell>
        <mxCell id="Nu5w_VwsL_ZHYVIoER0i-18" value="&lt;font style=&quot;font-size: 16px;&quot;&gt;he can see massege fazaa in the way&lt;/font&gt;" style="whiteSpace=wrap;html=1;rounded=1;strokeColor=#9673a6;fontFamily=Helvetica;fontSize=12;fontColor=default;startSize=23;fillColor=#FFFFFF;" parent="Nu5w_VwsL_ZHYVIoER0i-13" vertex="1">
          <mxGeometry x="250" y="944.5" width="120" height="60" as="geometry" />
        </mxCell>
        <mxCell id="Nu5w_VwsL_ZHYVIoER0i-19" value="&lt;font style=&quot;font-size: 16px;&quot;&gt;make the pyment&lt;/font&gt;" style="rounded=1;whiteSpace=wrap;html=1;strokeColor=#9673a6;fontFamily=Helvetica;fontSize=12;fontColor=default;startSize=23;fillColor=#FFFFFF;" parent="Nu5w_VwsL_ZHYVIoER0i-13" vertex="1">
          <mxGeometry x="250" y="1049" width="120" height="60" as="geometry" />
        </mxCell>
        <mxCell id="Nu5w_VwsL_ZHYVIoER0i-20" value="&lt;font style=&quot;font-size: 16px;&quot;&gt;custmoer rating the fazza&lt;/font&gt;" style="rounded=1;whiteSpace=wrap;html=1;" parent="Nu5w_VwsL_ZHYVIoER0i-13" vertex="1">
          <mxGeometry x="240" y="1329" width="120" height="51" as="geometry" />
        </mxCell>
        <mxCell id="Nu5w_VwsL_ZHYVIoER0i-82" value="&lt;font style=&quot;font-size: 16px;&quot;&gt;the customer can uploed his car license&lt;/font&gt;" style="rounded=1;whiteSpace=wrap;html=1;strokeColor=#9673a6;fontFamily=Helvetica;fontSize=12;fontColor=default;startSize=23;fillColor=#FFFFFF;" parent="Nu5w_VwsL_ZHYVIoER0i-13" vertex="1">
          <mxGeometry x="80" y="239" width="160" height="60" as="geometry" />
        </mxCell>
        <mxCell id="Nu5w_VwsL_ZHYVIoER0i-21" value="&lt;span style=&quot;font-size: 18px;&quot;&gt;System&lt;/span&gt;" style="swimlane;whiteSpace=wrap;html=1;fillColor=#e1d5e7;strokeColor=#9673a6;startSize=23;" parent="1" vertex="1">
          <mxGeometry x="270" y="-60" width="480" height="1510" as="geometry" />
        </mxCell>
        <mxCell id="Nu5w_VwsL_ZHYVIoER0i-22" style="edgeStyle=orthogonalEdgeStyle;rounded=0;orthogonalLoop=1;jettySize=auto;html=1;exitX=0.5;exitY=1;exitDx=0;exitDy=0;fontFamily=Helvetica;fontSize=12;fontColor=default;startSize=23;entryX=0.5;entryY=0;entryDx=0;entryDy=0;" parent="Nu5w_VwsL_ZHYVIoER0i-21" source="Nu5w_VwsL_ZHYVIoER0i-23" target="Nu5w_VwsL_ZHYVIoER0i-25" edge="1">
          <mxGeometry relative="1" as="geometry">
            <mxPoint x="129.79999999999995" y="420" as="targetPoint" />
          </mxGeometry>
        </mxCell>
        <mxCell id="Nu5w_VwsL_ZHYVIoER0i-23" value="&lt;font size=&quot;3&quot;&gt;create new order in the system&lt;/font&gt;" style="rounded=1;whiteSpace=wrap;html=1;strokeColor=#9673a6;fontFamily=Helvetica;fontSize=12;fontColor=default;startSize=23;fillColor=#FFFFFF;" parent="Nu5w_VwsL_ZHYVIoER0i-21" vertex="1">
          <mxGeometry x="80" y="200" width="160" height="60" as="geometry" />
        </mxCell>
        <mxCell id="Nu5w_VwsL_ZHYVIoER0i-24" style="edgeStyle=orthogonalEdgeStyle;rounded=0;orthogonalLoop=1;jettySize=auto;html=1;exitX=0.5;exitY=1;exitDx=0;exitDy=0;entryX=0.5;entryY=0.061;entryDx=0;entryDy=0;entryPerimeter=0;fontFamily=Helvetica;fontSize=12;fontColor=default;startSize=23;" parent="Nu5w_VwsL_ZHYVIoER0i-21" source="Nu5w_VwsL_ZHYVIoER0i-25" target="Nu5w_VwsL_ZHYVIoER0i-30" edge="1">
          <mxGeometry relative="1" as="geometry" />
        </mxCell>
        <mxCell id="Nu5w_VwsL_ZHYVIoER0i-25" value="&lt;font size=&quot;3&quot;&gt;looking for fazaa&amp;nbsp;Within 1 km also dosen&#39;t have order now in the system&lt;/font&gt;" style="rounded=1;whiteSpace=wrap;html=1;strokeColor=#9673a6;fontFamily=Helvetica;fontSize=12;fontColor=default;startSize=23;fillColor=#FFFFFF;" parent="Nu5w_VwsL_ZHYVIoER0i-21" vertex="1">
          <mxGeometry x="50" y="290" width="220" height="60" as="geometry" />
        </mxCell>
        <mxCell id="Nu5w_VwsL_ZHYVIoER0i-26" style="edgeStyle=orthogonalEdgeStyle;rounded=0;orthogonalLoop=1;jettySize=auto;html=1;exitX=0;exitY=0.5;exitDx=0;exitDy=0;fontFamily=Helvetica;fontSize=12;fontColor=default;startSize=23;entryX=0.337;entryY=-0.016;entryDx=0;entryDy=0;entryPerimeter=0;" parent="Nu5w_VwsL_ZHYVIoER0i-21" source="Nu5w_VwsL_ZHYVIoER0i-30" target="Nu5w_VwsL_ZHYVIoER0i-32" edge="1">
          <mxGeometry relative="1" as="geometry">
            <mxPoint x="69" y="500" as="targetPoint" />
            <Array as="points">
              <mxPoint x="68" y="435" />
            </Array>
          </mxGeometry>
        </mxCell>
        <mxCell id="Nu5w_VwsL_ZHYVIoER0i-27" value="Yes" style="edgeLabel;html=1;align=center;verticalAlign=middle;resizable=0;points=[];fontSize=12;fontFamily=Helvetica;fontColor=default;" parent="Nu5w_VwsL_ZHYVIoER0i-26" vertex="1" connectable="0">
          <mxGeometry x="-0.1387" y="-2" relative="1" as="geometry">
            <mxPoint as="offset" />
          </mxGeometry>
        </mxCell>
        <mxCell id="Nu5w_VwsL_ZHYVIoER0i-28" style="edgeStyle=orthogonalEdgeStyle;rounded=0;orthogonalLoop=1;jettySize=auto;html=1;exitX=1;exitY=0.5;exitDx=0;exitDy=0;fontFamily=Helvetica;fontSize=12;fontColor=default;startSize=23;entryX=0.417;entryY=-0.047;entryDx=0;entryDy=0;entryPerimeter=0;" parent="Nu5w_VwsL_ZHYVIoER0i-21" source="Nu5w_VwsL_ZHYVIoER0i-30" target="Nu5w_VwsL_ZHYVIoER0i-34" edge="1">
          <mxGeometry relative="1" as="geometry">
            <mxPoint x="260" y="510" as="targetPoint" />
          </mxGeometry>
        </mxCell>
        <mxCell id="Nu5w_VwsL_ZHYVIoER0i-29" value="No" style="edgeLabel;html=1;align=center;verticalAlign=middle;resizable=0;points=[];fontSize=12;fontFamily=Helvetica;fontColor=default;" parent="Nu5w_VwsL_ZHYVIoER0i-28" vertex="1" connectable="0">
          <mxGeometry x="0.145" y="-2" relative="1" as="geometry">
            <mxPoint as="offset" />
          </mxGeometry>
        </mxCell>
        <mxCell id="Nu5w_VwsL_ZHYVIoER0i-30" value="&lt;font style=&quot;font-size: 12px;&quot;&gt;&lt;b&gt;their is fazaa in this area&lt;/b&gt;&lt;/font&gt;" style="rhombus;whiteSpace=wrap;html=1;rounded=1;strokeColor=#000000;fontFamily=Helvetica;fontSize=12;fontColor=default;startSize=23;fillColor=#FFFFFF;" parent="Nu5w_VwsL_ZHYVIoER0i-21" vertex="1">
          <mxGeometry x="110" y="390" width="100" height="90" as="geometry" />
        </mxCell>
        <mxCell id="Nu5w_VwsL_ZHYVIoER0i-31" style="edgeStyle=orthogonalEdgeStyle;rounded=0;orthogonalLoop=1;jettySize=auto;html=1;exitX=0.5;exitY=1;exitDx=0;exitDy=0;entryX=0.5;entryY=0;entryDx=0;entryDy=0;fontFamily=Helvetica;fontSize=12;fontColor=default;startSize=23;" parent="Nu5w_VwsL_ZHYVIoER0i-21" source="Nu5w_VwsL_ZHYVIoER0i-32" target="Nu5w_VwsL_ZHYVIoER0i-40" edge="1">
          <mxGeometry relative="1" as="geometry" />
        </mxCell>
        <mxCell id="Nu5w_VwsL_ZHYVIoER0i-32" value="&lt;font style=&quot;font-size: 16px;&quot;&gt;filtration depend on the score of the rate of order accepted and the speed of order acceptance&lt;br&gt;&amp;nbsp;by Fazaa&amp;nbsp;&lt;/font&gt;" style="whiteSpace=wrap;html=1;rounded=1;strokeColor=#9673a6;fontFamily=Helvetica;fontSize=12;fontColor=default;startSize=23;fillColor=#FFFFFF;" parent="Nu5w_VwsL_ZHYVIoER0i-21" vertex="1">
          <mxGeometry x="7.5" y="510" width="180" height="100" as="geometry" />
        </mxCell>
        <mxCell id="Nu5w_VwsL_ZHYVIoER0i-33" style="edgeStyle=orthogonalEdgeStyle;rounded=0;orthogonalLoop=1;jettySize=auto;html=1;exitX=0.5;exitY=1;exitDx=0;exitDy=0;entryX=0.5;entryY=0;entryDx=0;entryDy=0;fontFamily=Helvetica;fontSize=12;fontColor=default;startSize=23;" parent="Nu5w_VwsL_ZHYVIoER0i-21" source="Nu5w_VwsL_ZHYVIoER0i-34" target="Nu5w_VwsL_ZHYVIoER0i-39" edge="1">
          <mxGeometry relative="1" as="geometry" />
        </mxCell>
        <mxCell id="Nu5w_VwsL_ZHYVIoER0i-34" value="&lt;font style=&quot;font-size: 16px;&quot;&gt;&lt;font style=&quot;&quot;&gt;looking for fazaa&amp;nbsp;bigger then 1km and&amp;nbsp;&lt;/font&gt;also dosen&#39;t have order now in the system&lt;/font&gt;" style="whiteSpace=wrap;html=1;rounded=1;strokeColor=#9673a6;fontFamily=Helvetica;fontSize=12;fontColor=default;startSize=23;fillColor=#FFFFFF;" parent="Nu5w_VwsL_ZHYVIoER0i-21" vertex="1">
          <mxGeometry x="220" y="500" width="180" height="80" as="geometry" />
        </mxCell>
        <mxCell id="Nu5w_VwsL_ZHYVIoER0i-35" style="edgeStyle=orthogonalEdgeStyle;rounded=0;orthogonalLoop=1;jettySize=auto;html=1;fontFamily=Helvetica;fontSize=12;fontColor=default;startSize=23;entryX=1;entryY=0.5;entryDx=0;entryDy=0;" parent="Nu5w_VwsL_ZHYVIoER0i-21" source="Nu5w_VwsL_ZHYVIoER0i-39" target="Nu5w_VwsL_ZHYVIoER0i-32" edge="1">
          <mxGeometry relative="1" as="geometry">
            <mxPoint x="180" y="540" as="targetPoint" />
          </mxGeometry>
        </mxCell>
        <mxCell id="Nu5w_VwsL_ZHYVIoER0i-36" value="Yes" style="edgeLabel;html=1;align=center;verticalAlign=middle;resizable=0;points=[];fontSize=12;fontFamily=Helvetica;fontColor=default;" parent="Nu5w_VwsL_ZHYVIoER0i-35" vertex="1" connectable="0">
          <mxGeometry x="-0.3187" y="2" relative="1" as="geometry">
            <mxPoint as="offset" />
          </mxGeometry>
        </mxCell>
        <mxCell id="Nu5w_VwsL_ZHYVIoER0i-37" style="edgeStyle=orthogonalEdgeStyle;rounded=0;orthogonalLoop=1;jettySize=auto;html=1;exitX=1;exitY=0.5;exitDx=0;exitDy=0;fontFamily=Helvetica;fontSize=12;fontColor=default;startSize=23;entryX=1;entryY=0.5;entryDx=0;entryDy=0;" parent="Nu5w_VwsL_ZHYVIoER0i-21" source="Nu5w_VwsL_ZHYVIoER0i-39" target="Nu5w_VwsL_ZHYVIoER0i-34" edge="1">
          <mxGeometry relative="1" as="geometry">
            <mxPoint x="390" y="540" as="targetPoint" />
            <Array as="points">
              <mxPoint x="420" y="650" />
              <mxPoint x="420" y="540" />
            </Array>
          </mxGeometry>
        </mxCell>
        <mxCell id="Nu5w_VwsL_ZHYVIoER0i-38" value="No" style="edgeLabel;html=1;align=center;verticalAlign=middle;resizable=0;points=[];fontSize=12;fontFamily=Helvetica;fontColor=default;" parent="Nu5w_VwsL_ZHYVIoER0i-37" vertex="1" connectable="0">
          <mxGeometry x="-0.0473" y="2" relative="1" as="geometry">
            <mxPoint as="offset" />
          </mxGeometry>
        </mxCell>
        <mxCell id="Nu5w_VwsL_ZHYVIoER0i-39" value="&lt;font style=&quot;font-size: 14px;&quot;&gt;&lt;b style=&quot;&quot;&gt;their is fazaa in this area&lt;/b&gt;&lt;/font&gt;" style="rhombus;whiteSpace=wrap;html=1;rounded=1;strokeColor=#000000;fontFamily=Helvetica;fontSize=12;fontColor=default;startSize=23;fillColor=#FFFFFF;" parent="Nu5w_VwsL_ZHYVIoER0i-21" vertex="1">
          <mxGeometry x="250" y="605" width="100" height="90" as="geometry" />
        </mxCell>
        <mxCell id="Nu5w_VwsL_ZHYVIoER0i-40" value="&lt;font style=&quot;font-size: 16px;&quot;&gt;assign to fazaa by the criteria acceptance order rate ,acceptance speed rate&amp;nbsp;&lt;/font&gt;" style="rounded=1;whiteSpace=wrap;html=1;strokeColor=#9673a6;fontFamily=Helvetica;fontSize=12;fontColor=default;startSize=23;fillColor=#FFFFFF;" parent="Nu5w_VwsL_ZHYVIoER0i-21" vertex="1">
          <mxGeometry x="7.5" y="670" width="180" height="80" as="geometry" />
        </mxCell>
        <mxCell id="Nu5w_VwsL_ZHYVIoER0i-41" value="&lt;font style=&quot;font-size: 16px;&quot;&gt;assign to new fazza&lt;/font&gt;" style="whiteSpace=wrap;html=1;rounded=1;strokeColor=#9673a6;fontFamily=Helvetica;fontSize=12;fontColor=default;startSize=23;fillColor=#FFFFFF;" parent="Nu5w_VwsL_ZHYVIoER0i-21" vertex="1">
          <mxGeometry x="10" y="790" width="120" height="60" as="geometry" />
        </mxCell>
        <mxCell id="Nu5w_VwsL_ZHYVIoER0i-42" value="" style="line;strokeWidth=4;html=1;perimeter=backbonePerimeter;points=[];outlineConnect=0;rounded=1;strokeColor=#000000;fontFamily=Helvetica;fontSize=12;fontColor=default;startSize=23;fillColor=#000000;" parent="Nu5w_VwsL_ZHYVIoER0i-21" vertex="1">
          <mxGeometry x="110" y="1440" width="125" height="11" as="geometry" />
        </mxCell>
        <mxCell id="Nu5w_VwsL_ZHYVIoER0i-43" value="" style="line;strokeWidth=4;html=1;perimeter=backbonePerimeter;points=[];outlineConnect=0;rounded=1;strokeColor=#000000;fontFamily=Helvetica;fontSize=12;fontColor=default;startSize=23;fillColor=#000000;flipH=0;flipV=1;direction=south;" parent="Nu5w_VwsL_ZHYVIoER0i-21" vertex="1">
          <mxGeometry x="340" y="690" width="20" height="110" as="geometry" />
        </mxCell>
        <mxCell id="Nu5w_VwsL_ZHYVIoER0i-44" style="edgeStyle=orthogonalEdgeStyle;rounded=0;orthogonalLoop=1;jettySize=auto;html=1;exitX=1;exitY=0.5;exitDx=0;exitDy=0;fontFamily=Helvetica;fontSize=12;fontColor=default;startSize=23;" parent="Nu5w_VwsL_ZHYVIoER0i-21" source="Nu5w_VwsL_ZHYVIoER0i-40" target="Nu5w_VwsL_ZHYVIoER0i-43" edge="1">
          <mxGeometry relative="1" as="geometry">
            <mxPoint x="330" y="710" as="targetPoint" />
            <Array as="points">
              <mxPoint x="310" y="710" />
              <mxPoint x="310" y="710" />
            </Array>
          </mxGeometry>
        </mxCell>
        <mxCell id="Nu5w_VwsL_ZHYVIoER0i-45" style="edgeStyle=orthogonalEdgeStyle;rounded=0;orthogonalLoop=1;jettySize=auto;html=1;exitX=1;exitY=0.25;exitDx=0;exitDy=0;fontFamily=Helvetica;fontSize=12;fontColor=default;startSize=23;" parent="Nu5w_VwsL_ZHYVIoER0i-21" source="Nu5w_VwsL_ZHYVIoER0i-41" target="Nu5w_VwsL_ZHYVIoER0i-43" edge="1">
          <mxGeometry relative="1" as="geometry">
            <mxPoint x="340" y="741" as="targetPoint" />
            <Array as="points">
              <mxPoint x="130" y="790" />
            </Array>
          </mxGeometry>
        </mxCell>
        <mxCell id="Nu5w_VwsL_ZHYVIoER0i-79" value="" style="ellipse;html=1;shape=endState;fillColor=#000000;strokeColor=#000000;" parent="Nu5w_VwsL_ZHYVIoER0i-21" vertex="1">
          <mxGeometry x="157.5" y="1470" width="30" height="30" as="geometry" />
        </mxCell>
        <mxCell id="Nu5w_VwsL_ZHYVIoER0i-80" value="" style="edgeStyle=orthogonalEdgeStyle;rounded=0;orthogonalLoop=1;jettySize=auto;html=1;" parent="Nu5w_VwsL_ZHYVIoER0i-21" source="Nu5w_VwsL_ZHYVIoER0i-42" target="Nu5w_VwsL_ZHYVIoER0i-79" edge="1">
          <mxGeometry relative="1" as="geometry" />
        </mxCell>
        <mxCell id="Nu5w_VwsL_ZHYVIoER0i-46" value="&lt;span style=&quot;font-size: 18px;&quot;&gt;fazaa&lt;/span&gt;" style="swimlane;whiteSpace=wrap;html=1;fillColor=#7EA6E0;strokeColor=#9673a6;startSize=23;" parent="1" vertex="1">
          <mxGeometry x="750" y="-59" width="520" height="1509" as="geometry">
            <mxRectangle x="600" y="60" width="90" height="40" as="alternateBounds" />
          </mxGeometry>
        </mxCell>
        <mxCell id="Nu5w_VwsL_ZHYVIoER0i-47" style="edgeStyle=orthogonalEdgeStyle;rounded=0;orthogonalLoop=1;jettySize=auto;html=1;exitX=0.5;exitY=1;exitDx=0;exitDy=0;entryX=0.5;entryY=0;entryDx=0;entryDy=0;fontFamily=Helvetica;fontSize=12;fontColor=default;startSize=23;" parent="Nu5w_VwsL_ZHYVIoER0i-46" source="Nu5w_VwsL_ZHYVIoER0i-48" target="Nu5w_VwsL_ZHYVIoER0i-51" edge="1">
          <mxGeometry relative="1" as="geometry">
            <mxPoint x="130" y="758.9999999999998" as="targetPoint" />
            <Array as="points">
              <mxPoint x="130" y="739" />
            </Array>
          </mxGeometry>
        </mxCell>
        <mxCell id="Nu5w_VwsL_ZHYVIoER0i-48" value="&lt;font style=&quot;font-size: 16px;&quot;&gt;fazaa can see pop up in the app and he can accept with 10 second type of serves , how many km from the customer , price&amp;nbsp;&lt;/font&gt;" style="rounded=1;whiteSpace=wrap;html=1;strokeColor=#9673a6;fontFamily=Helvetica;fontSize=12;fontColor=default;startSize=23;fillColor=#FFFFFF;" parent="Nu5w_VwsL_ZHYVIoER0i-46" vertex="1">
          <mxGeometry x="30" y="650" width="310" height="100" as="geometry" />
        </mxCell>
        <mxCell id="Nu5w_VwsL_ZHYVIoER0i-49" style="edgeStyle=orthogonalEdgeStyle;rounded=0;orthogonalLoop=1;jettySize=auto;html=1;exitX=1;exitY=0.5;exitDx=0;exitDy=0;entryX=0.439;entryY=-0.072;entryDx=0;entryDy=0;entryPerimeter=0;" parent="Nu5w_VwsL_ZHYVIoER0i-46" source="Nu5w_VwsL_ZHYVIoER0i-51" target="Nu5w_VwsL_ZHYVIoER0i-55" edge="1">
          <mxGeometry relative="1" as="geometry">
            <mxPoint x="283" y="892" as="targetPoint" />
            <Array as="points">
              <mxPoint x="185" y="829" />
              <mxPoint x="283" y="829" />
            </Array>
          </mxGeometry>
        </mxCell>
        <mxCell id="Nu5w_VwsL_ZHYVIoER0i-50" value="&lt;b&gt;&lt;font style=&quot;font-size: 14px;&quot;&gt;Yes&lt;/font&gt;&lt;/b&gt;" style="edgeLabel;html=1;align=center;verticalAlign=middle;resizable=0;points=[];" parent="Nu5w_VwsL_ZHYVIoER0i-49" vertex="1" connectable="0">
          <mxGeometry x="-0.1935" y="-1" relative="1" as="geometry">
            <mxPoint as="offset" />
          </mxGeometry>
        </mxCell>
        <mxCell id="Nu5w_VwsL_ZHYVIoER0i-51" value="&lt;font style=&quot;font-size: 16px;&quot;&gt;&lt;b style=&quot;&quot;&gt;accept the order&lt;/b&gt;&lt;/font&gt;" style="rhombus;whiteSpace=wrap;html=1;rounded=1;strokeColor=#000000;fontFamily=Helvetica;fontSize=12;fontColor=default;startSize=23;fillColor=#FFFFFF;" parent="Nu5w_VwsL_ZHYVIoER0i-46" vertex="1">
          <mxGeometry x="75" y="829" width="110" height="90" as="geometry" />
        </mxCell>
        <mxCell id="Nu5w_VwsL_ZHYVIoER0i-54" style="edgeStyle=orthogonalEdgeStyle;rounded=0;orthogonalLoop=1;jettySize=auto;html=1;exitX=0.5;exitY=1;exitDx=0;exitDy=0;" parent="Nu5w_VwsL_ZHYVIoER0i-46" source="Nu5w_VwsL_ZHYVIoER0i-55" target="Nu5w_VwsL_ZHYVIoER0i-68" edge="1">
          <mxGeometry relative="1" as="geometry" />
        </mxCell>
        <mxCell id="Nu5w_VwsL_ZHYVIoER0i-55" value="&lt;font style=&quot;font-size: 16px;&quot;&gt;the fazza can see customer lociton&amp;nbsp;&lt;/font&gt;" style="whiteSpace=wrap;html=1;rounded=1;strokeColor=#000000;fontFamily=Helvetica;fontSize=12;fontColor=default;startSize=23;fillColor=#FFFFFF;" parent="Nu5w_VwsL_ZHYVIoER0i-46" vertex="1">
          <mxGeometry x="230" y="870" width="120" height="60" as="geometry" />
        </mxCell>
        <mxCell id="Nu5w_VwsL_ZHYVIoER0i-89" style="edgeStyle=orthogonalEdgeStyle;rounded=0;orthogonalLoop=1;jettySize=auto;html=1;exitX=0.5;exitY=1;exitDx=0;exitDy=0;" parent="Nu5w_VwsL_ZHYVIoER0i-46" source="Nu5w_VwsL_ZHYVIoER0i-57" target="Nu5w_VwsL_ZHYVIoER0i-88" edge="1">
          <mxGeometry relative="1" as="geometry" />
        </mxCell>
        <mxCell id="Nu5w_VwsL_ZHYVIoER0i-57" value="&lt;font style=&quot;font-size: 16px;&quot;&gt;fazza arreved to the custemor&amp;nbsp;&lt;/font&gt;" style="whiteSpace=wrap;html=1;fillColor=#FFFFFF;strokeColor=#000000;rounded=1;startSize=23;" parent="Nu5w_VwsL_ZHYVIoER0i-46" vertex="1">
          <mxGeometry x="230" y="979" width="120" height="60" as="geometry" />
        </mxCell>
        <mxCell id="Nu5w_VwsL_ZHYVIoER0i-58" value="" style="edgeStyle=orthogonalEdgeStyle;rounded=0;orthogonalLoop=1;jettySize=auto;html=1;" parent="Nu5w_VwsL_ZHYVIoER0i-46" source="Nu5w_VwsL_ZHYVIoER0i-59" target="Nu5w_VwsL_ZHYVIoER0i-61" edge="1">
          <mxGeometry relative="1" as="geometry" />
        </mxCell>
        <mxCell id="Nu5w_VwsL_ZHYVIoER0i-59" value="" style="line;strokeWidth=4;html=1;perimeter=backbonePerimeter;points=[];outlineConnect=0;rounded=1;strokeColor=#000000;fontFamily=Helvetica;fontSize=12;fontColor=default;startSize=23;fillColor=#000000;" parent="Nu5w_VwsL_ZHYVIoER0i-46" vertex="1">
          <mxGeometry x="70" y="1169" width="125" height="11" as="geometry" />
        </mxCell>
        <mxCell id="Nu5w_VwsL_ZHYVIoER0i-60" value="" style="edgeStyle=orthogonalEdgeStyle;rounded=0;orthogonalLoop=1;jettySize=auto;html=1;" parent="Nu5w_VwsL_ZHYVIoER0i-46" source="Nu5w_VwsL_ZHYVIoER0i-61" target="Nu5w_VwsL_ZHYVIoER0i-62" edge="1">
          <mxGeometry relative="1" as="geometry" />
        </mxCell>
        <mxCell id="Nu5w_VwsL_ZHYVIoER0i-61" value="&lt;font style=&quot;font-size: 16px;&quot;&gt;fazza do the service&lt;/font&gt;" style="rounded=1;whiteSpace=wrap;html=1;" parent="Nu5w_VwsL_ZHYVIoER0i-46" vertex="1">
          <mxGeometry x="72.5" y="1199" width="120" height="60" as="geometry" />
        </mxCell>
        <mxCell id="Nu5w_VwsL_ZHYVIoER0i-62" value="&lt;font style=&quot;font-size: 18px;&quot;&gt;fazza finish the service&lt;/font&gt;" style="rounded=1;whiteSpace=wrap;html=1;" parent="Nu5w_VwsL_ZHYVIoER0i-46" vertex="1">
          <mxGeometry x="72.5" y="1279" width="120" height="60" as="geometry" />
        </mxCell>
        <mxCell id="Nu5w_VwsL_ZHYVIoER0i-63" value="&lt;font style=&quot;font-size: 16px;&quot;&gt;fazza rate the customer&amp;nbsp;&lt;/font&gt;" style="whiteSpace=wrap;html=1;rounded=1;" parent="Nu5w_VwsL_ZHYVIoER0i-46" vertex="1">
          <mxGeometry x="72.5" y="1389" width="120" height="60" as="geometry" />
        </mxCell>
        <mxCell id="Nu5w_VwsL_ZHYVIoER0i-64" value="" style="edgeStyle=orthogonalEdgeStyle;rounded=0;orthogonalLoop=1;jettySize=auto;html=1;" parent="Nu5w_VwsL_ZHYVIoER0i-46" source="Nu5w_VwsL_ZHYVIoER0i-65" target="Nu5w_VwsL_ZHYVIoER0i-63" edge="1">
          <mxGeometry relative="1" as="geometry" />
        </mxCell>
        <mxCell id="Nu5w_VwsL_ZHYVIoER0i-65" value="" style="line;strokeWidth=4;html=1;perimeter=backbonePerimeter;points=[];outlineConnect=0;rounded=1;strokeColor=#000000;fontFamily=Helvetica;fontSize=12;fontColor=default;startSize=23;fillColor=#000000;" parent="Nu5w_VwsL_ZHYVIoER0i-46" vertex="1">
          <mxGeometry x="70" y="1349" width="125" height="11" as="geometry" />
        </mxCell>
        <mxCell id="Nu5w_VwsL_ZHYVIoER0i-66" style="edgeStyle=orthogonalEdgeStyle;rounded=0;orthogonalLoop=1;jettySize=auto;html=1;exitX=0.5;exitY=1;exitDx=0;exitDy=0;" parent="Nu5w_VwsL_ZHYVIoER0i-46" source="Nu5w_VwsL_ZHYVIoER0i-62" target="Nu5w_VwsL_ZHYVIoER0i-65" edge="1">
          <mxGeometry relative="1" as="geometry" />
        </mxCell>
        <mxCell id="Nu5w_VwsL_ZHYVIoER0i-67" value="" style="edgeStyle=orthogonalEdgeStyle;rounded=0;orthogonalLoop=1;jettySize=auto;html=1;" parent="Nu5w_VwsL_ZHYVIoER0i-46" source="Nu5w_VwsL_ZHYVIoER0i-68" target="Nu5w_VwsL_ZHYVIoER0i-57" edge="1">
          <mxGeometry relative="1" as="geometry" />
        </mxCell>
        <mxCell id="Nu5w_VwsL_ZHYVIoER0i-68" value="" style="line;strokeWidth=4;html=1;perimeter=backbonePerimeter;points=[];outlineConnect=0;rounded=1;strokeColor=#000000;fontFamily=Helvetica;fontSize=12;fontColor=default;startSize=23;fillColor=#000000;" parent="Nu5w_VwsL_ZHYVIoER0i-46" vertex="1">
          <mxGeometry x="227.5" y="949" width="125" height="11" as="geometry" />
        </mxCell>
        <mxCell id="Nu5w_VwsL_ZHYVIoER0i-90" style="edgeStyle=orthogonalEdgeStyle;rounded=0;orthogonalLoop=1;jettySize=auto;html=1;" parent="Nu5w_VwsL_ZHYVIoER0i-46" source="Nu5w_VwsL_ZHYVIoER0i-88" target="Nu5w_VwsL_ZHYVIoER0i-59" edge="1">
          <mxGeometry relative="1" as="geometry">
            <mxPoint x="150" y="1109" as="targetPoint" />
            <Array as="points">
              <mxPoint x="133" y="1110" />
            </Array>
          </mxGeometry>
        </mxCell>
        <mxCell id="Nu5w_VwsL_ZHYVIoER0i-91" value="&lt;font style=&quot;font-size: 14px;&quot;&gt;&lt;b&gt;Yes&lt;/b&gt;&lt;/font&gt;" style="edgeLabel;html=1;align=center;verticalAlign=middle;resizable=0;points=[];" parent="Nu5w_VwsL_ZHYVIoER0i-90" vertex="1" connectable="0">
          <mxGeometry x="0.0464" y="-2" relative="1" as="geometry">
            <mxPoint as="offset" />
          </mxGeometry>
        </mxCell>
        <mxCell id="Nu5w_VwsL_ZHYVIoER0i-92" style="edgeStyle=orthogonalEdgeStyle;rounded=0;orthogonalLoop=1;jettySize=auto;html=1;exitX=1;exitY=0.5;exitDx=0;exitDy=0;entryX=0.5;entryY=0;entryDx=0;entryDy=0;" parent="Nu5w_VwsL_ZHYVIoER0i-46" source="Nu5w_VwsL_ZHYVIoER0i-88" target="Nu5w_VwsL_ZHYVIoER0i-94" edge="1">
          <mxGeometry relative="1" as="geometry">
            <mxPoint x="400" y="1179" as="targetPoint" />
          </mxGeometry>
        </mxCell>
        <mxCell id="Nu5w_VwsL_ZHYVIoER0i-93" value="&lt;b&gt;&lt;font style=&quot;font-size: 12px;&quot;&gt;No&lt;/font&gt;&lt;/b&gt;" style="edgeLabel;html=1;align=center;verticalAlign=middle;resizable=0;points=[];" parent="Nu5w_VwsL_ZHYVIoER0i-92" vertex="1" connectable="0">
          <mxGeometry x="0.137" relative="1" as="geometry">
            <mxPoint as="offset" />
          </mxGeometry>
        </mxCell>
        <mxCell id="Nu5w_VwsL_ZHYVIoER0i-88" value="&lt;font style=&quot;font-size: 14px;&quot;&gt;&lt;b style=&quot;&quot;&gt;custmoer uploed his car&amp;nbsp;&lt;/b&gt;&lt;/font&gt;&lt;b&gt;&lt;font style=&quot;font-size: 14px;&quot;&gt;license&lt;/font&gt;&lt;/b&gt;" style="rhombus;whiteSpace=wrap;html=1;rounded=1;strokeColor=#000000;fontFamily=Helvetica;fontSize=12;fontColor=default;startSize=23;fillColor=#FFFFFF;" parent="Nu5w_VwsL_ZHYVIoER0i-46" vertex="1">
          <mxGeometry x="235" y="1059" width="110" height="101" as="geometry" />
        </mxCell>
        <mxCell id="Nu5w_VwsL_ZHYVIoER0i-96" style="edgeStyle=orthogonalEdgeStyle;rounded=0;orthogonalLoop=1;jettySize=auto;html=1;exitX=0;exitY=0.25;exitDx=0;exitDy=0;" parent="Nu5w_VwsL_ZHYVIoER0i-46" source="Nu5w_VwsL_ZHYVIoER0i-94" target="Nu5w_VwsL_ZHYVIoER0i-59" edge="1">
          <mxGeometry relative="1" as="geometry">
            <mxPoint x="170" y="1149" as="targetPoint" />
            <Array as="points">
              <mxPoint x="350" y="1159" />
              <mxPoint x="170" y="1159" />
            </Array>
          </mxGeometry>
        </mxCell>
        <mxCell id="Nu5w_VwsL_ZHYVIoER0i-94" value="&lt;font style=&quot;font-size: 16px;&quot;&gt;fazza take picture of car license of the customer and send it by the app then he can move on&lt;/font&gt;" style="rounded=1;whiteSpace=wrap;html=1;" parent="Nu5w_VwsL_ZHYVIoER0i-46" vertex="1">
          <mxGeometry x="350" y="1149" width="160" height="111" as="geometry" />
        </mxCell>
        <mxCell id="Nu5w_VwsL_ZHYVIoER0i-70" style="edgeStyle=orthogonalEdgeStyle;rounded=0;orthogonalLoop=1;jettySize=auto;html=1;exitX=0;exitY=0.5;exitDx=0;exitDy=0;entryX=1.033;entryY=0.594;entryDx=0;entryDy=0;entryPerimeter=0;fontFamily=Helvetica;fontSize=12;fontColor=default;startSize=23;" parent="1" source="Nu5w_VwsL_ZHYVIoER0i-51" target="Nu5w_VwsL_ZHYVIoER0i-41" edge="1">
          <mxGeometry relative="1" as="geometry">
            <Array as="points">
              <mxPoint x="780" y="766" />
            </Array>
          </mxGeometry>
        </mxCell>
        <mxCell id="Nu5w_VwsL_ZHYVIoER0i-71" value="&lt;font style=&quot;font-size: 14px;&quot;&gt;No&lt;/font&gt;" style="edgeLabel;html=1;align=center;verticalAlign=middle;resizable=0;points=[];fontSize=12;fontFamily=Helvetica;fontColor=default;" parent="Nu5w_VwsL_ZHYVIoER0i-70" vertex="1" connectable="0">
          <mxGeometry x="-0.7184" y="1" relative="1" as="geometry">
            <mxPoint as="offset" />
          </mxGeometry>
        </mxCell>
        <mxCell id="Nu5w_VwsL_ZHYVIoER0i-72" style="edgeStyle=orthogonalEdgeStyle;rounded=0;orthogonalLoop=1;jettySize=auto;html=1;exitX=1;exitY=0.5;exitDx=0;exitDy=0;" parent="1" source="Nu5w_VwsL_ZHYVIoER0i-19" target="Nu5w_VwsL_ZHYVIoER0i-59" edge="1">
          <mxGeometry relative="1" as="geometry">
            <mxPoint x="830" y="1020" as="targetPoint" />
            <Array as="points">
              <mxPoint x="840" y="1020" />
            </Array>
          </mxGeometry>
        </mxCell>
        <mxCell id="Nu5w_VwsL_ZHYVIoER0i-73" style="edgeStyle=orthogonalEdgeStyle;rounded=0;orthogonalLoop=1;jettySize=auto;html=1;exitX=0.5;exitY=1;exitDx=0;exitDy=0;" parent="1" source="Nu5w_VwsL_ZHYVIoER0i-20" target="Nu5w_VwsL_ZHYVIoER0i-42" edge="1">
          <mxGeometry relative="1" as="geometry">
            <mxPoint x="480" y="1270" as="targetPoint" />
          </mxGeometry>
        </mxCell>
        <mxCell id="Nu5w_VwsL_ZHYVIoER0i-74" value="" style="edgeStyle=orthogonalEdgeStyle;rounded=0;orthogonalLoop=1;jettySize=auto;html=1;entryX=1;entryY=0.5;entryDx=0;entryDy=0;" parent="1" source="Nu5w_VwsL_ZHYVIoER0i-65" target="Nu5w_VwsL_ZHYVIoER0i-20" edge="1">
          <mxGeometry relative="1" as="geometry">
            <mxPoint x="850" y="1320" as="sourcePoint" />
            <mxPoint x="740" y="1286.5" as="targetPoint" />
            <Array as="points">
              <mxPoint x="210" y="1295" />
            </Array>
          </mxGeometry>
        </mxCell>
        <mxCell id="Nu5w_VwsL_ZHYVIoER0i-75" style="edgeStyle=orthogonalEdgeStyle;rounded=0;orthogonalLoop=1;jettySize=auto;html=1;exitX=0;exitY=0.5;exitDx=0;exitDy=0;" parent="1" source="Nu5w_VwsL_ZHYVIoER0i-63" target="Nu5w_VwsL_ZHYVIoER0i-42" edge="1">
          <mxGeometry relative="1" as="geometry">
            <mxPoint x="540" y="1370" as="targetPoint" />
            <Array as="points">
              <mxPoint x="500" y="1360" />
            </Array>
          </mxGeometry>
        </mxCell>
        <mxCell id="Nu5w_VwsL_ZHYVIoER0i-77" style="edgeStyle=orthogonalEdgeStyle;rounded=0;orthogonalLoop=1;jettySize=auto;html=1;entryX=1;entryY=0.5;entryDx=0;entryDy=0;" parent="1" source="Nu5w_VwsL_ZHYVIoER0i-68" target="Nu5w_VwsL_ZHYVIoER0i-18" edge="1">
          <mxGeometry relative="1" as="geometry">
            <mxPoint x="250" y="916" as="targetPoint" />
            <Array as="points">
              <mxPoint x="1010" y="916" />
              <mxPoint x="280" y="916" />
            </Array>
          </mxGeometry>
        </mxCell>
        <mxCell id="Nu5w_VwsL_ZHYVIoER0i-78" value="" style="edgeStyle=orthogonalEdgeStyle;rounded=0;orthogonalLoop=1;jettySize=auto;html=1;entryX=-0.008;entryY=0.435;entryDx=0;entryDy=0;entryPerimeter=0;" parent="1" source="Nu5w_VwsL_ZHYVIoER0i-43" target="Nu5w_VwsL_ZHYVIoER0i-48" edge="1">
          <mxGeometry relative="1" as="geometry">
            <mxPoint x="738" y="695" as="targetPoint" />
            <Array as="points">
              <mxPoint x="750" y="670" />
              <mxPoint x="750" y="635" />
            </Array>
          </mxGeometry>
        </mxCell>
        <mxCell id="Nu5w_VwsL_ZHYVIoER0i-81" value="&lt;font style=&quot;font-size: 18px;&quot;&gt;&lt;b&gt;Opening the locked car&lt;/b&gt;&lt;/font&gt;" style="text;html=1;align=center;verticalAlign=middle;resizable=0;points=[];autosize=1;strokeColor=none;fillColor=none;" parent="1" vertex="1">
          <mxGeometry x="400" y="-100" width="220" height="40" as="geometry" />
        </mxCell>
        <mxCell id="Nu5w_VwsL_ZHYVIoER0i-84" style="edgeStyle=orthogonalEdgeStyle;rounded=0;orthogonalLoop=1;jettySize=auto;html=1;exitX=1;exitY=0.5;exitDx=0;exitDy=0;" parent="1" source="Nu5w_VwsL_ZHYVIoER0i-82" target="Nu5w_VwsL_ZHYVIoER0i-23" edge="1">
          <mxGeometry relative="1" as="geometry">
            <Array as="points">
              <mxPoint x="90" y="210" />
              <mxPoint x="90" y="170" />
            </Array>
          </mxGeometry>
        </mxCell>
        <mxCell id="Nu5w_VwsL_ZHYVIoER0i-100" value="" style="edgeStyle=orthogonalEdgeStyle;rounded=0;orthogonalLoop=1;jettySize=auto;html=1;entryX=-0.032;entryY=0.297;entryDx=0;entryDy=0;entryPerimeter=0;" parent="1" source="Nu5w_VwsL_ZHYVIoER0i-98" target="Nu5w_VwsL_ZHYVIoER0i-32" edge="1">
          <mxGeometry relative="1" as="geometry">
            <mxPoint x="-140" y="480" as="targetPoint" />
            <Array as="points">
              <mxPoint x="75" y="480" />
            </Array>
          </mxGeometry>
        </mxCell>
        <mxCell id="Nu5w_VwsL_ZHYVIoER0i-98" value="&lt;div&gt;&lt;font style=&quot;font-size: 16px;&quot;&gt;We can add additional criteria&lt;/font&gt;&lt;/div&gt;&lt;div&gt;&lt;font size=&quot;3&quot;&gt;The number of comments on it compared to the number of requests&lt;/font&gt;&lt;/div&gt;&lt;div&gt;&lt;font size=&quot;3&quot;&gt;the wating time for fazza when he open the app&lt;/font&gt;&lt;/div&gt;" style="shape=note;whiteSpace=wrap;html=1;backgroundOutline=1;darkOpacity=0.05;" parent="1" vertex="1">
          <mxGeometry x="-370" y="380" width="140" height="200" as="geometry" />
        </mxCell>
        <mxCell id="C53ytI4VAeJsvV1XJ2C9-2" value="" style="edgeStyle=orthogonalEdgeStyle;rounded=0;orthogonalLoop=1;jettySize=auto;html=1;" edge="1" parent="1" source="Nu5w_VwsL_ZHYVIoER0i-101" target="Nu5w_VwsL_ZHYVIoER0i-98">
          <mxGeometry relative="1" as="geometry" />
        </mxCell>
        <mxCell id="Nu5w_VwsL_ZHYVIoER0i-101" value="&lt;font style=&quot;font-size: 16px;&quot;&gt;we add in admin side a new page which is notes in all fazza&lt;/font&gt;" style="shape=note;whiteSpace=wrap;html=1;backgroundOutline=1;darkOpacity=0.05;" parent="1" vertex="1">
          <mxGeometry x="-350" y="210" width="100" height="130" as="geometry" />
        </mxCell>
      </root>
    </mxGraphModel>
  </diagram>
</mxfile>
